<?xml version="1.0" encoding="utf-8"?>
<!-- Generator: Adobe Illustrator 21.0.0, SVG Export Plug-In . SVG Version: 6.00 Build 0)  -->
<svg version="1.1" id="Calque_1" xmlns="http://www.w3.org/2000/svg" xmlns:xlink="http://www.w3.org/1999/xlink" x="0px" y="0px"
	 viewBox="0 0 164.4 162.2" style="enable-background:new 0 0 164.4 162.2;" xml:space="preserve">
<style type="text/css">
	.st0{fill:#E13E26;}
	.st1{fill:#FFFFFF;}
</style>
<g>
	<g>
		<g>
			<path class="st0" d="M141.2,50.4L27.6,129.2c1,0.8,2.1,1.6,3.2,2.4l111.5-77.3C142,53,141.6,51.7,141.2,50.4z"/>
			<path class="st0" d="M138.5,43.1L21.8,124c0.9,0.9,1.9,1.8,2.8,2.6l115.3-79.9C139.5,45.5,139,44.3,138.5,43.1z"/>
			<path class="st0" d="M135,36.3L16.6,118.4c0.8,1,1.6,1.9,2.5,2.9l117.7-81.6C136.2,38.5,135.6,37.4,135,36.3z"/>
			<path class="st0" d="M131.7,31.1c-0.3-0.4-0.6-0.8-0.9-1.2L12.1,112.3c0.3,0.4,0.5,0.8,0.8,1.2c0.4,0.6,0.9,1.2,1.4,1.9L133,33
				C132.6,32.4,132.2,31.7,131.7,31.1z"/>
			<path class="st0" d="M126.1,24L8.2,105.7c0.6,1.1,1.2,2.2,1.8,3.3l118.5-82.1C127.7,25.9,126.9,24.9,126.1,24z"/>
			<path class="st0" d="M120.7,18.5L5,98.7c0.5,1.2,1,2.4,1.5,3.5l116.9-81.1C122.5,20.3,121.6,19.4,120.7,18.5z"/>
			<path class="st0" d="M114.5,13.6L2.5,91.2c0.3,1.3,0.7,2.5,1.1,3.8l114-79C116.6,15.1,115.6,14.3,114.5,13.6z"/>
			<path class="st0" d="M107.5,9.2L0.8,83.2c0.2,1.4,0.4,2.7,0.7,4.1l109.6-76C109.9,10.5,108.7,9.8,107.5,9.2z"/>
			<path class="st0" d="M99.7,5.4L0,74.5c0,1.5,0.1,2.9,0.3,4.4L103.7,7.2C102.4,6.5,101,5.9,99.7,5.4z"/>
			<path class="st0" d="M90.7,2.4L0.4,65c-0.2,1.6-0.3,3.2-0.3,4.8l95.3-66C93.8,3.2,92.2,2.8,90.7,2.4z"/>
			<path class="st0" d="M80.2,0.4l-77.9,54c-0.5,1.8-0.8,3.6-1.2,5.4L85.6,1.2C83.8,0.9,82,0.6,80.2,0.4z"/>
			<path class="st0" d="M67.2,0.2L6.5,42.3c-0.9,2.1-1.8,4.2-2.5,6.3L74,0C71.8,0,69.5,0,67.2,0.2z"/>
			<path class="st0" d="M48.2,4.1L16.9,25.8c-2.4,2.9-4.6,5.9-6.5,9.1L59,1.2C55.4,1.9,51.8,2.9,48.2,4.1z"/>
			<path class="st0" d="M129.8,116.2l-36.6,25.3c7.1-2.1,13.9-5.4,20.3-9.8C119.9,127.3,125.3,122,129.8,116.2z"/>
			<path class="st0" d="M138.1,102.3l-60.7,42.1c2.7-0.2,5.4-0.5,8.1-1l48.9-33.9C135.7,107.2,136.9,104.8,138.1,102.3z"/>
			<path class="st0" d="M142,91.5l-76.1,52.8c2.1,0.2,4.1,0.3,6.2,0.3l68.1-47.2C140.8,95.5,141.4,93.5,142,91.5z"/>
			<path class="st0" d="M143.9,82.1l-87.6,60.7c1.7,0.4,3.5,0.7,5.2,1L143,87.3C143.4,85.6,143.7,83.8,143.9,82.1z"/>
			<path class="st0" d="M144.6,73.5l-96.5,66.9c1.5,0.5,3,1,4.5,1.5l91.8-63.6C144.5,76.7,144.5,75.1,144.6,73.5z"/>
			<path class="st0" d="M144.3,65.7L40.8,137.4c1.3,0.6,2.7,1.2,4,1.8L144.6,70C144.5,68.6,144.4,67.1,144.3,65.7z"/>
			<path class="st0" d="M143.2,58.3L34.3,133.8c1.2,0.7,2.4,1.4,3.6,2.1l106-73.5C143.7,61,143.5,59.7,143.2,58.3z"/>
		</g>
		<g>
			<path class="st0" d="M84.4,143.6c8.6-4,17.5-8.5,27.2-14.2c5.3-3.1,10.4-6.5,15.5-10c2.6-3,4.9-6.3,7-9.7
				c-7.9,6-16.1,11.4-24.4,16.4C96.4,134,84.5,139.6,73,144.6C76.8,144.6,80.6,144.2,84.4,143.6z"/>
			<path class="st0" d="M138.4,101.6c1-2.3,1.9-4.6,2.7-7c-11.4,9.5-23.3,18-35.7,25.3c-15.8,9.4-29.8,15.5-43.2,21.3
				c-1.5,0.6-2.9,1.3-4.4,1.9c2.3,0.5,4.6,0.8,6.9,1.1c13.3-5.8,27-11.8,42.6-21.1C118.1,116.7,128.4,109.5,138.4,101.6z"/>
			<path class="st0" d="M103,116.9c13.9-8.3,27.2-17.9,39.8-28.8c0.4-2,0.8-3.9,1.1-5.9c-13.5,12.1-27.8,22.6-42.8,31.5
				c-15.8,9.4-29.8,15.5-43.2,21.3c-3.7,1.6-7.4,3.2-11.2,4.9c1.7,0.7,3.5,1.2,5.3,1.8c2.5-1.1,5-2.2,7.5-3.3
				C72.9,132.5,87,126.4,103,116.9z"/>
			<path class="st0" d="M98.7,110.6c16.1-9.6,31.4-21,45.8-34.1c0.1-1.7,0.2-3.5,0.1-5.2c-15,14-31,26.1-47.8,36.1
				c-15.8,9.4-29.8,15.5-43.2,21.3c-5.2,2.3-10.5,4.5-15.9,7c1.4,0.8,2.8,1.5,4.3,2.2c4.4-2,8.8-3.9,13.1-5.8
				C68.6,126.3,82.7,120.2,98.7,110.6z"/>
			<path class="st0" d="M94.4,104.4c17.7-10.5,34.4-23.2,50-38c-0.1-1.6-0.3-3.1-0.5-4.7c-16,15.4-33.2,28.6-51.4,39.4
				c-15.8,9.4-29.8,15.5-43.2,21.3c-6.2,2.7-12.5,5.5-19.1,8.5c1.2,0.9,2.4,1.7,3.6,2.4c5.8-2.7,11.4-5.1,17-7.5
				C64.3,120,78.3,113.9,94.4,104.4z"/>
			<path class="st0" d="M90,98.2c18.8-11.2,36.5-24.9,53-40.9c-0.3-1.4-0.7-2.8-1-4.2c-16.7,16.5-34.7,30.5-53.9,41.9
				c-15.8,9.4-29.8,15.5-43.2,21.3c-6.9,3-13.9,6-21.2,9.6c1,0.9,2.1,1.8,3.1,2.7c6.7-3.2,13.2-6,19.6-8.8
				C60,113.8,74,107.7,90,98.2z"/>
			<path class="st0" d="M85.7,91.9c19.6-11.6,38-26,55-42.9c-0.4-1.3-0.9-2.6-1.4-3.9C122.2,62.4,103.6,77,83.8,88.7
				C68,98.1,54,104.2,40.6,110c-7.3,3.2-14.7,6.4-22.5,10.1c0.9,1,1.8,1.9,2.7,2.9c7.3-3.5,14.4-6.6,21.3-9.6
				C55.6,107.6,69.7,101.5,85.7,91.9z"/>
			<path class="st0" d="M81.4,85.7c20.1-11.9,38.9-26.7,56.3-44.2c-0.6-1.2-1.2-2.4-1.8-3.5c-17.4,17.6-36.3,32.5-56.5,44.5
				c-15.8,9.4-29.8,15.5-43.2,21.3c-7.4,3.2-15,6.5-22.9,10.4c0.7,1,1.5,2.1,2.3,3.1c7.6-3.7,14.9-6.9,22.1-10
				C51.3,101.3,65.4,95.2,81.4,85.7z"/>
			<path class="st0" d="M76.9,79.2c20.3-12.1,39.4-27.1,57-44.8c-0.7-1.1-1.4-2.2-2.1-3.2C114.3,49,95.3,64,75,76
				c-15.8,9.4-29.8,15.5-43.2,21.3c-7.3,3.2-14.8,6.4-22.6,10.2c0.6,1.1,1.3,2.2,1.9,3.2c7.7-3.7,15-6.9,22.2-10
				C46.8,94.9,60.9,88.8,76.9,79.2z"/>
			<path class="st0" d="M72.6,73c20.3-12.1,39.4-27.1,57-44.8c-0.8-1-1.6-2-2.4-2.9c-17.4,17.6-36.4,32.6-56.5,44.5
				c-15.8,9.4-29.8,15.5-43.2,21.3c-7,3-14.1,6.1-21.6,9.7c0.5,1.1,1,2.3,1.6,3.4c7.4-3.6,14.5-6.7,21.5-9.7
				C42.5,88.6,56.6,82.5,72.6,73z"/>
			<path class="st0" d="M68.3,66.8c20.1-12,39-26.8,56.4-44.3c-0.9-0.9-1.8-1.8-2.7-2.7c-17.2,17.3-35.9,31.9-55.7,43.7
				C50.5,73,36.6,79,23.1,84.9c-6.5,2.8-13,5.7-19.9,8.9C3.6,95,4,96.2,4.4,97.3c6.9-3.3,13.6-6.2,20.2-9
				C38.2,82.4,52.2,76.3,68.3,66.8z"/>
			<path class="st0" d="M64,60.5c19.7-11.7,38.2-26.2,55.4-43.2c-1-0.8-1.9-1.6-2.9-2.4C99.6,31.6,81.4,45.8,62,57.3
				c-15.8,9.4-29.8,15.5-43.2,21.3c-5.7,2.5-11.5,5-17.4,7.8c0.2,1.3,0.5,2.5,0.8,3.8c6.2-2.9,12.2-5.5,18.1-8.1
				C33.9,76.2,47.9,70.1,64,60.5z"/>
			<path class="st0" d="M59.6,54.3C78.7,43,96.7,29,113.3,12.8c-1.1-0.7-2.1-1.4-3.2-2.1C93.8,26.5,76.3,40,57.7,51.1
				C41.9,60.5,28,66.5,14.5,72.4c-4.7,2-9.4,4.1-14.2,6.3c0.1,1.3,0.3,2.6,0.4,3.9C5.9,80.2,11,78,16,75.8
				C29.6,69.9,43.6,63.8,59.6,54.3z"/>
			<path class="st0" d="M55.3,48.1c18.2-10.8,35.4-24,51.4-39.3c-1.2-0.6-2.4-1.2-3.6-1.8C87.6,21.7,71,34.4,53.4,44.8
				c-15.8,9.4-29.8,15.5-43.2,21.3C6.8,67.6,3.4,69.1,0,70.6c0,1.4,0,2.7,0,4.1c3.9-1.8,7.8-3.4,11.6-5.1
				C25.2,63.7,39.3,57.6,55.3,48.1z"/>
			<path class="st0" d="M51,41.8C68.1,31.7,84.3,19.4,99.4,5.3c-1.3-0.5-2.6-1-3.9-1.5C80.9,17.3,65.4,28.9,49.1,38.6
				C33.2,48,19.3,54.1,5.8,59.9c-1.7,0.7-3.4,1.5-5.1,2.2c-0.2,1.4-0.4,2.9-0.5,4.3c2.4-1,4.7-2.1,7.1-3.1
				C20.9,57.5,34.9,51.4,51,41.8z"/>
			<path class="st0" d="M46.7,35.6c15.6-9.3,30.6-20.4,44.6-33c-1.5-0.4-2.9-0.7-4.4-1.1C73.5,13.3,59.5,23.6,44.7,32.4
				c-15.4,9.2-29,15.1-42.2,20.8c-0.4,1.5-0.8,3-1.1,4.6c0.5-0.2,1-0.4,1.5-0.7C16.6,51.2,30.6,45.1,46.7,35.6z"/>
			<path class="st0" d="M82,0.7c-1.7-0.2-3.5-0.4-5.2-0.5c-11.6,9.8-23.8,18.5-36.4,26C28,33.5,16.7,38.8,5.9,43.6
				c-0.7,1.6-1.3,3.3-1.9,4.9c11.9-5.2,24.4-10.9,38.3-19.2C56.2,21.1,69.4,11.5,82,0.7z"/>
			<path class="st0" d="M71.1,0c-2.2,0-4.3,0.2-6.5,0.4c-9.2,7.2-18.7,13.7-28.5,19.5c-8.6,5.1-16.6,9.2-24.3,12.9
				c-1.2,1.9-2.3,3.7-3.3,5.7c9.3-4.2,19-9,29.6-15.3C49.4,16.3,60.5,8.6,71.1,0z"/>
			<path class="st0" d="M56.4,1.8c-4,0.9-7.9,2.1-11.8,3.7c-4.2,2.8-8.5,5.6-12.8,8.2c-2.2,1.3-4.4,2.6-6.6,3.8
				c-3.2,2.7-6,5.7-8.6,8.8c5.5-2.8,11.2-5.8,17.2-9.4C41.5,12.3,49,7.2,56.4,1.8z"/>
		</g>
	</g>
	<g>
		<path class="st0" d="M140.4,86.3h3.9v28.9h15.5c3-7.9,4.6-16.4,4.6-25.4c0-39.9-32.4-72.3-72.3-72.3c-39.9,0-72.3,32.4-72.3,72.3
			s32.4,72.3,72.3,72.3c29.5,0,54.9-17.7,66.1-43h-17.8V86.3z M96.1,66.1c4.5,0,8.2,3.5,8.2,7.8c0,0.2,0,0.4,0,0.7l0,0.1H90.5
			c0.4,2.6,2.8,4.6,5.6,4.6c1.6,0,3.1-0.6,4.2-1.8l0,0h3l-0.1,0.2c-1.5,2.5-4.2,4-7.1,4c-4.5,0-8.2-3.5-8.2-7.8
			C88,69.6,91.7,66.1,96.1,66.1z M104.9,86.3l-10.4,15.5l-2.4-3.4l8.1-12H104.9z M79.2,55.9h2.5v25.4h-2.5V55.9z M56.8,57.4h15v2.5
			h-15V57.4z M35.6,57.3h11.1c4,0,7.2,3.2,7.2,7.2s-3.2,7.2-7.2,7.2h-8.4v8.7h-2.5V69.3h10.8c2.6,0,4.8-2.1,4.8-4.8
			c0-2.6-2.1-4.8-4.8-4.8H35.6V57.3z M51.2,107.2H39.7v11.9h-3.9v-15.7h15.4c3.6,0,6.5-2.9,6.5-6.5c0-3.6-2.9-6.5-6.5-6.5H35.7v-3.9
			h15.5c5.7,0,10.4,4.7,10.4,10.4C61.6,102.5,56.9,107.2,51.2,107.2z M71.1,119.1h-3.9V86.3h3.9V119.1z M64.3,81.8
			c-4.7,0-8.6-3.5-8.6-7.9s3.8-7.9,8.6-7.9s8.6,3.5,8.6,7.9S69,81.8,64.3,81.8z M80.7,119.1H76l11.5-16.8l-10.7-16h4.7l10.7,16
			L80.7,119.1z M101,119.1l-8.8-12.8l2.4-3.4l11.1,16.2H101z M133.3,103.7H114v11.6h19.4v3.9h-23.2V99.8h23.2V103.7z M133.3,89.9
			h-23.2V86h23.2V89.9z"/>
		<ellipse class="st0" cx="64.3" cy="73.9" rx="6.1" ry="5.4"/>
		<path class="st0" d="M96.1,68.5c-2.5,0-4.7,1.6-5.5,3.8h10.9C100.8,70.1,98.6,68.5,96.1,68.5z"/>
		<path class="st1" d="M51.5,64.5c0,2.6-2.1,4.8-4.8,4.8H35.9v11.2h2.5v-8.7h8.4c4,0,7.2-3.2,7.2-7.2s-3.2-7.2-7.2-7.2H35.6v2.5
			h11.1C49.4,59.7,51.5,61.9,51.5,64.5z"/>
		<path class="st1" d="M51.2,86.4H35.7v3.9h15.5c3.6,0,6.5,2.9,6.5,6.5c0,3.6-2.9,6.5-6.5,6.5H35.8v15.7h3.9v-11.9h11.6
			c5.7,0,10.4-4.7,10.4-10.4C61.6,91.1,56.9,86.4,51.2,86.4z"/>
		<path class="st1" d="M64.3,66.1c-4.7,0-8.6,3.5-8.6,7.9s3.8,7.9,8.6,7.9s8.6-3.5,8.6-7.9S69,66.1,64.3,66.1z M64.3,79.3
			c-3.4,0-6.1-2.4-6.1-5.4c0-3,2.7-5.4,6.1-5.4c3.4,0,6.1,2.4,6.1,5.4C70.3,76.9,67.6,79.3,64.3,79.3z"/>
		<rect x="56.8" y="57.4" class="st1" width="15" height="2.5"/>
		<rect x="79.2" y="55.9" class="st1" width="2.5" height="25.4"/>
		<rect x="67.2" y="86.3" class="st1" width="3.9" height="32.7"/>
		<polygon class="st1" points="110.1,119.1 133.3,119.1 133.3,115.3 114,115.3 114,103.7 133.3,103.7 133.3,99.8 110.1,99.8 		"/>
		<rect x="110.1" y="86" class="st1" width="23.2" height="3.9"/>
		<path class="st1" d="M96.1,81.8c2.9,0,5.6-1.5,7.1-4l0.1-0.2h-3l0,0c-1.1,1.1-2.6,1.8-4.2,1.8c-2.8,0-5.2-2-5.6-4.6h13.7l0-0.1
			c0-0.3,0-0.5,0-0.7c0-4.3-3.7-7.8-8.2-7.8c-4.5,0-8.2,3.5-8.2,7.8C88,78.3,91.7,81.8,96.1,81.8z M96.1,68.5c2.5,0,4.7,1.6,5.5,3.8
			H90.7C91.4,70.1,93.7,68.5,96.1,68.5z"/>
		<path class="st1" d="M144.3,115.3V86.3h-3.9v32.8h17.8c0.6-1.3,1.1-2.6,1.6-3.9H144.3z"/>
		<polygon class="st1" points="76.7,86.3 87.5,102.3 76,119.1 80.7,119.1 92.2,102.3 81.4,86.3 		"/>
		<polygon class="st1" points="92.1,98.4 94.5,101.8 104.9,86.3 100.2,86.3 		"/>
		<polygon class="st1" points="92.2,106.3 101,119.1 105.7,119.1 94.6,102.9 		"/>
	</g>
</g>
</svg>
